<svg width="360" height="176" viewBox="0 0 360 176" fill="none" xmlns="http://www.w3.org/2000/svg">
<path d="M174.131 103.926L175.533 104.46L174.131 103.926ZM345.602 174.926C346.074 175.595 347.017 175.751 347.707 175.275L358.96 167.525C359.65 167.049 359.828 166.122 359.356 165.453C358.884 164.785 357.941 164.629 357.251 165.104L347.248 171.994L340.412 162.311C339.94 161.643 338.997 161.487 338.307 161.962C337.616 162.438 337.439 163.365 337.911 164.034L345.602 174.926ZM1.40864 33.7876C1.99484 35.1461 1.99543 35.1458 1.99694 35.1452C1.99869 35.1444 2.00113 35.1434 2.00462 35.1419C2.01159 35.1389 2.02227 35.1343 2.03661 35.1282C2.0653 35.1159 2.10867 35.0974 2.16644 35.0728C2.28198 35.0236 2.45515 34.9502 2.68379 34.8541C3.14109 34.6617 3.82029 34.3783 4.70424 34.0156C6.47218 33.2901 9.05891 32.2476 12.3272 30.9823C18.8645 28.4513 28.1254 25.03 39.0131 21.4716C60.8087 14.348 89.0408 6.70229 114.971 4.51409C141.024 2.31554 164.172 5.6757 176.468 19.8898C188.695 34.025 190.755 59.6069 172.728 103.393L174.131 103.926L175.533 104.46C193.64 60.482 192.176 33.4147 178.793 17.9432C165.478 2.55062 140.929 -0.653442 114.768 1.55425C88.4842 3.77229 59.9859 11.5033 38.1046 18.6549C27.1538 22.2339 17.8396 25.6749 11.2614 28.2217C7.97199 29.4952 5.36587 30.5455 3.58041 31.2781C2.68765 31.6445 2.00001 31.9314 1.53464 32.1271C1.30195 32.225 1.12483 32.3001 1.00541 32.3509C0.945705 32.3763 0.900424 32.3956 0.869838 32.4087C0.854545 32.4153 0.842925 32.4202 0.835013 32.4236C0.831057 32.4253 0.82791 32.4267 0.825929 32.4275C0.823714 32.4285 0.82243 32.429 1.40864 33.7876ZM174.131 103.926L172.728 103.393C168.199 114.393 165.115 123.179 163.316 130.045C161.529 136.863 160.961 141.962 161.634 145.496C161.975 147.291 162.655 148.783 163.756 149.871C164.873 150.975 166.304 151.545 167.906 151.697C170.994 151.99 174.889 150.746 179.23 148.65C187.997 144.415 199.71 136.126 212.829 126.402C226.004 116.637 240.66 105.378 255.456 95.0449C270.254 84.711 285.096 75.3729 298.589 69.456C312.147 63.5107 324.002 61.1736 333.02 64.3387C341.877 67.4473 348.547 76.0898 351.201 93.5294C353.857 110.976 352.421 136.88 345.364 173.818L346.853 174.065L348.341 174.312C355.418 137.265 356.927 110.973 354.197 93.0366C351.466 75.0933 344.419 65.1655 334.088 61.5394C323.917 57.9697 311.112 60.7336 297.397 66.7477C283.617 72.7903 268.573 82.2702 253.73 92.6358C238.886 103.002 224.147 114.324 211.032 124.044C197.861 133.806 186.388 141.906 177.933 145.989C173.663 148.051 170.438 148.947 168.254 148.74C167.22 148.642 166.476 148.302 165.926 147.759C165.36 147.199 164.879 146.305 164.612 144.898C164.066 142.03 164.485 137.464 166.249 130.733C168 124.049 171.029 115.4 175.533 104.46L174.131 103.926Z" fill="#EB5757" fill-opacity="0.9"/>
</svg>
