<svg width="345" height="250" viewBox="0 0 345 250" fill="none" xmlns="http://www.w3.org/2000/svg">
<path d="M0.900481 227.153C0.187829 227.578 -0.026362 228.486 0.422072 229.181L7.72973 240.504C8.17817 241.199 9.11941 241.417 9.83207 240.992C10.5447 240.567 10.7589 239.659 10.3105 238.964L3.81478 228.899L14.1377 222.74C14.8504 222.315 15.0646 221.407 14.6161 220.712C14.1677 220.017 13.2265 219.798 12.5138 220.223L0.900481 227.153ZM343.445 0.999984L341.936 0.774549C325.418 113.191 300.092 183.39 249.383 218.723C198.706 254.035 122.159 254.869 2.05073 226.977L1.71244 228.411L1.37416 229.845C121.511 257.744 199.316 257.268 251.186 221.124C303.025 185.003 328.443 113.601 344.954 1.22542L343.445 0.999984Z" fill="#EB5757" fill-opacity="0.9"/>
</svg>
