<svg width="110" height="35" viewBox="0 0 110 35" fill="none" xmlns="http://www.w3.org/2000/svg">
<path d="M48.4277 18.1125C48.4277 17.5175 48.5607 16.9995 48.8267 16.5585C49.0927 16.1105 49.4605 15.764 49.9299 15.519C50.4072 15.274 50.951 15.1515 51.5613 15.1515C52.3515 15.1515 53.0009 15.323 53.5095 15.666C54.0259 16.009 54.3662 16.485 54.5305 17.094H53.3804C53.2708 16.744 53.0557 16.4675 52.7349 16.2645C52.4219 16.0615 52.0307 15.96 51.5613 15.96C50.951 15.96 50.4581 16.149 50.0825 16.527C49.7069 16.898 49.5192 17.4265 49.5192 18.1125C49.5192 18.8055 49.7069 19.341 50.0825 19.719C50.4581 20.097 50.951 20.286 51.5613 20.286C52.0307 20.286 52.4219 20.188 52.7349 19.992C53.0479 19.796 53.263 19.516 53.3804 19.152H54.5305C54.3584 19.74 54.0141 20.2125 53.4977 20.5695C52.9813 20.9195 52.3359 21.0945 51.5613 21.0945C50.951 21.0945 50.4072 20.972 49.9299 20.727C49.4605 20.482 49.0927 20.1355 48.8267 19.6875C48.5607 19.2395 48.4277 18.7145 48.4277 18.1125Z" fill="#000112" fill-opacity="0.9"/>
<path d="M61.8237 17.9025C61.8237 18.0845 61.812 18.277 61.7885 18.48H56.648C56.6871 19.047 56.9023 19.4915 57.2935 19.8135C57.6925 20.1285 58.1737 20.286 58.7371 20.286C59.1987 20.286 59.5821 20.1915 59.8872 20.0025C60.2002 19.8065 60.4193 19.5475 60.5444 19.2255H61.6946C61.5225 19.7785 61.1782 20.23 60.6618 20.58C60.1454 20.923 59.5038 21.0945 58.7371 21.0945C58.1268 21.0945 57.5791 20.972 57.094 20.727C56.6167 20.482 56.2412 20.1355 55.9673 19.6875C55.6935 19.2325 55.5565 18.7075 55.5565 18.1125C55.5565 17.5175 55.6895 16.996 55.9556 16.548C56.2216 16.1 56.5932 15.757 57.0705 15.519C57.5556 15.274 58.1111 15.1515 58.7371 15.1515C59.3474 15.1515 59.8872 15.2705 60.3567 15.5085C60.8261 15.7465 61.186 16.0755 61.4364 16.4955C61.6946 16.9085 61.8237 17.3775 61.8237 17.9025ZM60.7205 17.703C60.7205 17.339 60.6305 17.0275 60.4506 16.7685C60.2706 16.5025 60.0241 16.303 59.7112 16.17C59.406 16.03 59.0657 15.96 58.6901 15.96C58.1503 15.96 57.6886 16.114 57.3052 16.422C56.9297 16.73 56.7145 17.157 56.6597 17.703H60.7205Z" fill="#000112" fill-opacity="0.9"/>
<path d="M69.9935 13.6815L66.9069 21H65.6746L62.5879 13.6815H63.7263L66.2966 19.992L68.8668 13.6815H69.9935Z" fill="#000112" fill-opacity="0.9"/>
<path d="M75.2605 17.2305C75.5578 17.2725 75.8278 17.381 76.0703 17.556C76.3207 17.731 76.5163 17.948 76.6571 18.207C76.8058 18.466 76.8801 18.7425 76.8801 19.0365C76.8801 19.4075 76.7745 19.7435 76.5632 20.0445C76.352 20.3385 76.0429 20.573 75.6361 20.748C75.237 20.916 74.7637 21 74.216 21H71.1646V13.6815H74.0986C74.6541 13.6815 75.1275 13.7655 75.5187 13.9335C75.9099 14.0945 76.2033 14.315 76.3989 14.595C76.5945 14.875 76.6923 15.19 76.6923 15.54C76.6923 15.974 76.5593 16.3345 76.2933 16.6215C76.0351 16.9015 75.6908 17.1045 75.2605 17.2305ZM72.2326 16.842H74.0282C74.529 16.842 74.9163 16.737 75.1901 16.527C75.4639 16.317 75.6009 16.0265 75.6009 15.6555C75.6009 15.2845 75.4639 14.994 75.1901 14.784C74.9163 14.574 74.5211 14.469 74.0047 14.469H72.2326V16.842ZM74.1221 20.2125C74.6541 20.2125 75.0688 20.1005 75.3661 19.8765C75.6635 19.6525 75.8121 19.341 75.8121 18.942C75.8121 18.536 75.6556 18.2175 75.3427 17.9865C75.0297 17.7485 74.6111 17.6295 74.0869 17.6295H72.2326V20.2125H74.1221Z" fill="#000112" fill-opacity="0.9"/>
<path d="M84.066 15.246V21H82.998V20.1495C82.7946 20.4435 82.509 20.6745 82.1413 20.8425C81.7813 21.0035 81.3823 21.084 80.9442 21.084C80.4434 21.084 79.9935 20.993 79.5945 20.811C79.1955 20.622 78.8786 20.342 78.6439 19.971C78.417 19.6 78.3035 19.1485 78.3035 18.6165V15.246H79.3598V18.4905C79.3598 19.0575 79.5202 19.495 79.841 19.803C80.1617 20.104 80.5999 20.2545 81.1554 20.2545C81.7266 20.2545 82.1765 20.097 82.5051 19.782C82.8337 19.467 82.998 19.0085 82.998 18.4065V15.246H84.066Z" fill="#000112" fill-opacity="0.9"/>
<path d="M86.4209 14.3115C86.2174 14.3115 86.0453 14.2485 85.9045 14.1225C85.7636 13.9965 85.6932 13.8425 85.6932 13.6605C85.6932 13.4785 85.7636 13.3245 85.9045 13.1985C86.0453 13.0725 86.2174 13.0095 86.4209 13.0095C86.6165 13.0095 86.7808 13.0725 86.9138 13.1985C87.0546 13.3245 87.125 13.4785 87.125 13.6605C87.125 13.8425 87.0546 13.9965 86.9138 14.1225C86.7808 14.2485 86.6165 14.3115 86.4209 14.3115ZM86.9373 15.246V21H85.8693V15.246H86.9373Z" fill="#000112" fill-opacity="0.9"/>
<path d="M89.8255 13.23V21H88.7575V13.23H89.8255Z" fill="#000112" fill-opacity="0.9"/>
<path d="M91.2467 18.102C91.2467 17.514 91.3797 16.9995 91.6457 16.5585C91.9117 16.1105 92.2755 15.764 92.7372 15.519C93.2066 15.274 93.7308 15.1515 94.3098 15.1515C94.8106 15.1515 95.2761 15.2565 95.7064 15.4665C96.1368 15.6695 96.4654 15.939 96.6923 16.275V13.23H97.772V21H96.6923V19.9185C96.481 20.2615 96.1681 20.545 95.7534 20.769C95.3387 20.986 94.8536 21.0945 94.2981 21.0945C93.7269 21.0945 93.2066 20.9685 92.7372 20.7165C92.2755 20.4645 91.9117 20.111 91.6457 19.656C91.3797 19.201 91.2467 18.683 91.2467 18.102ZM96.6923 18.1125C96.6923 17.6785 96.5945 17.3005 96.3989 16.9785C96.2033 16.6565 95.9372 16.4115 95.6008 16.2435C95.2722 16.0685 94.9084 15.981 94.5093 15.981C94.1103 15.981 93.7465 16.065 93.4179 16.233C93.0892 16.401 92.8271 16.646 92.6315 16.968C92.4359 17.29 92.3381 17.668 92.3381 18.102C92.3381 18.543 92.4359 18.928 92.6315 19.257C92.8271 19.579 93.0892 19.8275 93.4179 20.0025C93.7465 20.1705 94.1103 20.2545 94.5093 20.2545C94.9084 20.2545 95.2722 20.1705 95.6008 20.0025C95.9372 19.8275 96.2033 19.579 96.3989 19.257C96.5945 18.928 96.6923 18.5465 96.6923 18.1125Z" fill="#000112" fill-opacity="0.9"/>
<path d="M105.445 17.9025C105.445 18.0845 105.433 18.277 105.41 18.48H100.269C100.308 19.047 100.524 19.4915 100.915 19.8135C101.314 20.1285 101.795 20.286 102.358 20.286C102.82 20.286 103.203 20.1915 103.508 20.0025C103.821 19.8065 104.041 19.5475 104.166 19.2255H105.316C105.144 19.7785 104.799 20.23 104.283 20.58C103.767 20.923 103.125 21.0945 102.358 21.0945C101.748 21.0945 101.2 20.972 100.715 20.727C100.238 20.482 99.8624 20.1355 99.5886 19.6875C99.3147 19.2325 99.1778 18.7075 99.1778 18.1125C99.1778 17.5175 99.3108 16.996 99.5768 16.548C99.8429 16.1 100.215 15.757 100.692 15.519C101.177 15.274 101.732 15.1515 102.358 15.1515C102.969 15.1515 103.508 15.2705 103.978 15.5085C104.447 15.7465 104.807 16.0755 105.058 16.4955C105.316 16.9085 105.445 17.3775 105.445 17.9025ZM104.342 17.703C104.342 17.339 104.252 17.0275 104.072 16.7685C103.892 16.5025 103.645 16.303 103.332 16.17C103.027 16.03 102.687 15.96 102.311 15.96C101.772 15.96 101.31 16.114 100.926 16.422C100.551 16.73 100.336 17.157 100.281 17.703H104.342Z" fill="#000112" fill-opacity="0.9"/>
<path d="M107.923 16.1805C108.11 15.8515 108.376 15.596 108.721 15.414C109.073 15.232 109.499 15.141 110 15.141V16.128H109.718C108.521 16.128 107.923 16.709 107.923 17.871V21H106.855V15.246H107.923V16.1805Z" fill="#000112" fill-opacity="0.9"/>
<path fill-rule="evenodd" clip-rule="evenodd" d="M2.59664 0.230312C2.29061 0.329687 1.8221 0.670312 1.55539 0.986874C1.28905 1.30344 0.829812 1.5625 0.535279 1.5625C0.0756738 1.5625 0 3.92031 0 18.2813V35H41.5659L41.4635 30.42C41.3719 26.3356 41.2906 25.8316 40.7116 25.7603C40.1218 25.6875 40.0624 26.0503 40.0624 29.715V33.75H1.48379V1.25H40.0624V5.285C40.0624 8.94969 40.1218 9.3125 40.7116 9.23969C41.2906 9.16844 41.3719 8.66437 41.4635 4.58L41.5659 0L22.3597 0.0246882C11.7962 0.0381257 2.90267 0.130625 2.59664 0.230312ZM19.1038 11.6131C17.1901 12.2166 16.0435 13.0787 15.1989 14.5491C14.0708 16.5119 14.27 19.4022 15.6544 21.1647C17.7621 23.8478 22.7265 24.5009 26.2669 22.5606C26.995 22.1616 27.047 22.0263 26.6126 21.6603C26.1782 21.2944 25.854 21.3241 24.4574 21.8581C22.3582 22.6603 21.0283 22.6597 19.0578 21.8563C17.2684 21.1266 15.9508 19.2791 15.9508 17.5C15.9508 15.7209 17.2684 13.8734 19.0578 13.1437C21.0283 12.3403 22.3582 12.3397 24.4574 13.1419C25.8299 13.6666 26.183 13.7013 26.5974 13.3522C27.0117 13.0034 26.8463 12.8172 25.5958 12.2253C23.8583 11.4025 20.7123 11.1059 19.1038 11.6131ZM30.0468 17.5256V23.4884L34.6763 23.385C39.1577 23.2847 39.3383 23.2537 40.3247 22.4219C41.8133 21.1669 41.7621 19.3131 40.2067 18.1425L39.0694 17.2866L39.9371 16.6356C40.5458 16.1788 40.8043 15.6456 40.8043 14.8469C40.8043 12.56 39.2426 11.5625 35.6622 11.5625C33.7674 11.5625 33.4647 11.6406 33.5464 12.1094C33.6209 12.5375 34.0764 12.6784 35.6463 12.7581C38.1743 12.8866 39.3205 13.4756 39.3205 14.6462C39.3205 16.1225 37.9365 16.7756 34.6529 16.8494C33.9373 16.8653 33.5089 17.0378 33.5089 17.31C33.5089 17.6156 34.1384 17.7831 35.6277 17.8741C38.4451 18.0456 39.6915 18.7425 39.6915 20.1456C39.6915 21.7759 38.7029 22.1875 34.7864 22.1875H31.5306V16.875C31.5306 11.7709 31.5017 11.5625 30.7887 11.5625C30.0728 11.5625 30.0468 11.7709 30.0468 17.5256Z" fill="#000112" fill-opacity="0.9"/>
</svg>
