<svg width="25" height="25" viewBox="0 0 25 25" fill="none" xmlns="http://www.w3.org/2000/svg">
<g clip-path="url(#clip0_14_249)">
<path fill-rule="evenodd" clip-rule="evenodd" d="M12.5 0.5C19.1276 0.5 24.5 6.00792 24.5 12.8035C24.5 18.2383 21.0656 22.8487 16.3004 24.4771C15.692 24.5983 15.476 24.2141 15.476 23.8865C15.476 23.4809 15.4904 22.1562 15.4904 20.5098C15.4904 19.3626 15.1064 18.6138 14.6756 18.2322C17.348 17.9274 20.156 16.8869 20.156 12.1613C20.156 10.8173 19.6904 9.72058 18.92 8.85898C19.0448 8.54818 19.4564 7.29674 18.8024 5.60234C18.8024 5.60234 17.7968 5.27267 15.506 6.86387C14.5472 6.59147 13.52 6.45441 12.5 6.44961C11.48 6.45441 10.454 6.59147 9.4964 6.86387C7.2032 5.27267 6.1952 5.60234 6.1952 5.60234C5.5436 7.29674 5.9552 8.54818 6.0788 8.85898C5.312 9.72058 4.8428 10.8173 4.8428 12.1613C4.8428 16.8749 7.6448 17.9314 10.31 18.2422C9.9668 18.5494 9.656 19.0913 9.548 19.8869C8.864 20.2013 7.1264 20.7454 6.056 18.865C6.056 18.865 5.4212 17.6829 4.2164 17.5965C4.2164 17.5965 3.0464 17.5809 4.1348 18.3441C4.1348 18.3441 4.9208 18.7221 5.4668 20.1441C5.4668 20.1441 6.1712 22.3401 9.5096 21.5961C9.5156 22.6245 9.5264 23.5937 9.5264 23.8865C9.5264 24.2117 9.3056 24.5923 8.7068 24.4783C3.938 22.8523 0.5 18.2395 0.5 12.8035C0.5 6.00792 5.8736 0.5 12.5 0.5Z" fill="black"/>
</g>
<defs>
<clipPath id="clip0_14_249">
<rect width="24" height="24" fill="white" transform="translate(0.5 0.5)"/>
</clipPath>
</defs>
</svg>
